PathFileType	4	(X/Y/Z)	OpenSim_Sub02_EMGBaseline_Gyro.trc
DataRate	CameraRate	NumFrames	NumMarkers	Units	OrigDataRate	OrigDataStartFrame	OrigNumFrames
100	100	37	8	m	100	5887	6727
Frame#	Time	torso_imu_offset_imu	pelvis_imu_offset_imu	tibia_r_imu_offset_imu	femur_r_imu_offset_imu	tibia_l_imu_offset_imu	femur_l_imu_offset_imu	toes_r_imu_offset_imu	toes_l_imu_offset_imu
				X1	Y1	Z1	X2	Y2	Z2	X3	Y3	Z3	X4	Y4	Z4	X5	Y5	Z5	X6	Y6	Z6	X7	Y7	Z7	X8		Y8	Z8	

5887	58.86000000	-0.64678608	0.46104186	-0.26462280	0.58779733	-0.34344655	-0.61298367	-0.49696184	0.42681245	-2.26804348	-0.08950174	0.95329857	0.47761461	-4.89498885	0.33114679	1.08521781	-0.58593060	-0.35930498	-0.13432938	0.13551989	-4.51644546	-0.15213843	0.48766742	-0.13708993	-0.34039344
5888	58.87000000	-0.61687562	0.41283514	-0.24435864	0.56053025	-0.35761105	-0.58745698	-0.46449304	0.35599723	-2.28307073	-0.27624917	1.13069341	0.65653483	-5.16940243	0.09766048	0.95877487	-1.31895328	-0.35576091	0.31244653	0.59151752	-4.86300763	-0.28208099	0.41476456	-0.19924886	-0.51426804
5889	58.88000000	-0.62153568	0.38817832	-0.22899615	0.29265491	-0.34192376	-0.48622416	-0.49571862	0.29769763	-2.24414212	-0.43625972	1.20645118	0.78487133	-4.66883344	-0.03938771	0.94912995	-1.76947927	-0.28664850	0.98974626	0.68347002	-5.27347463	-0.37404648	0.31109410	-0.24555527	-0.53851941
5890	58.89000000	-0.63901428	0.35800482	-0.22604362	-0.14166314	-0.29691879	-0.40468988	-0.47857698	0.29250189	-2.23324730	-0.57700059	1.34331126	0.91967761	-3.29603706	-0.19742313	0.92574919	-1.72077339	-0.24970646	1.60827830	0.54036251	-5.70629333	-0.44610223	0.18088241	-0.15656068	-0.48702346
5891	58.90000000	-0.67375657	0.32480150	-0.24661923	-0.62409097	-0.24340833	-0.40055868	-0.56229210	0.26032769	-2.29635793	-0.79144582	1.51049291	1.13783425	-1.33614845	-0.35589477	0.85733629	-1.34348856	-0.24776865	1.86829492	0.94841668	-5.93299830	-0.57061573	0.11490028	-0.09018100	-0.46212713
5892	58.91000000	-0.73272769	0.28723103	-0.28222646	-1.07539937	-0.20813478	-0.46223501	-0.92679013	0.20983886	-2.38095573	-1.06994028	1.59788635	1.39314641	0.61585372	-0.53390092	0.87925165	-0.91680599	-0.22807319	1.84614939	1.17550553	-6.02144821	-0.73296747	0.09562899	-0.03145543	-0.39368451
5893	58.92000000	-0.81306504	0.22801199	-0.32828544	-1.44048469	-0.16819232	-0.55403701	-1.32734675	0.20605249	-2.43588901	-1.34071183	1.67069306	1.61206638	2.23972031	-0.68630518	0.90809310	-0.58692385	-0.16820198	1.76325978	0.92517007	-6.22316299	-0.98430864	0.12325850	0.01585635	-0.22518172
5894	58.93000000	-0.90087127	0.15073787	-0.38298691	-1.65171501	-0.07494095	-0.63531793	-1.56186526	0.20171556	-2.43986884	-1.59225953	1.73938755	1.77483632	3.20235880	-0.69710848	0.90428570	-0.46094460	-0.15558028	1.67040085	0.84502571	-6.18604057	-1.27898410	0.17172411	-0.00440296	-0.07905313
5895	58.94000000	-1.00046661	0.06929853	-0.43745841	-1.70854365	0.09055311	-0.68692564	-1.77597196	0.16523929	-2.34603225	-1.84908341	1.75130011	1.90874459	3.34448625	-0.59487839	0.94640947	-0.61076337	-0.22989542	1.52914681	0.29248024	-5.73854212	-1.36783584	0.10435017	-0.01342400	-0.00126615
5896	58.95000000	-1.12275877	-0.00610736	-0.48657233	-1.66715940	0.28243227	-0.70376078	-1.98597451	0.13394830	-2.16357041	-2.09210456	1.71631937	2.00383918	2.81281483	-0.43296497	1.00770193	-0.91817055	-0.31393368	1.30698466	-0.52993815	-5.30930322	-1.36518780	0.00338296	0.00670635	0.02787148
5897	58.96000000	-1.25087880	-0.06469997	-0.53946390	-1.56565189	0.41694693	-0.66852551	-2.09636511	0.13319238	-1.94269872	-2.25715460	1.66230215	2.03406967	1.83323579	-0.22947149	0.98521831	-1.15295744	-0.35949649	1.03753018	-1.17764414	-4.95397700	-1.49510422	-0.05890776	0.01398222	0.03183861
5898	58.97000000	-1.36533202	-0.10943289	-0.57490808	-1.44078078	0.43087738	-0.56984018	-2.19663854	0.08503993	-1.70351759	-2.29182718	1.60633878	2.05358675	0.68088512	-0.05477919	0.85826570	-1.14882055	-0.37698522	0.86029961	-1.70645465	-4.44814265	-1.66024546	-0.04753756	-0.03760550	0.03356531
5899	58.98000000	-1.44750238	-0.16324385	-0.57396053	-1.31863572	0.33213394	-0.40648440	-2.39169959	-0.07499185	-1.47467607	-2.23978619	1.53215487	2.06183672	-0.45931664	0.03620837	0.75923289	-1.00026435	-0.35498237	0.78470075	-2.00403601	-3.84126804	-1.89287069	-0.01645490	-0.04896660	0.01466938
5900	58.99000000	-1.49460320	-0.23395073	-0.55940143	-1.17959583	0.20826401	-0.22167936	-2.58849224	-0.28434490	-1.30009928	-2.08819094	1.42156612	2.03057114	-1.31846818	0.05164208	0.76674213	-0.90802054	-0.29512118	0.71071566	-1.90337495	-3.10096182	-2.22194252	0.01367677	-0.06125760	-0.01638420
5901	59	-1.52045880	-0.29991411	-0.53307563	-0.99277820	0.10400566	-0.05997917	-2.69264722	-0.52849869	-1.17422220	-1.80331305	1.27998765	1.96709823	-1.69068540	0.07492219	0.83420360	-0.97237112	-0.23679043	0.61092312	-2.45008493	-3.02191429	-2.78339262	0.02244745	-0.06549625	-0.04333933
5902	59.01000000	-1.53123745	-0.36335444	-0.50325404	-0.78387037	0.01121248	0.05818616	-2.72043851	-0.79685797	-1.01980656	-1.49908049	1.12969528	1.87466407	-1.64684921	0.11630218	0.88829584	-1.15441762	-0.23997299	0.56061860	-4.62316682	-1.35605613	-3.41448339	0.06674455	-0.07301129	-0.04320436
5903	59.02000000	-1.53452664	-0.42106937	-0.47779234	-0.62461493	-0.07828294	0.13067942	-2.58481100	-1.01382107	-0.82471521	-1.29586937	0.98331621	1.78465076	-1.24399713	0.10358674	0.88824079	-1.27966891	-0.29444487	0.59837084	-5.44747642	1.09233005	-3.72077108	0.08302961	-0.08213496	-0.03881062
5904	59.03000000	-1.51497138	-0.45380271	-0.45479209	-0.53725003	-0.16015148	0.18230730	-2.24494185	-1.24380552	-0.62227725	-1.19395879	0.84160148	1.70491002	-0.55673701	0.06025063	0.86304387	-1.17672388	-0.33928316	0.65698153	-3.65869725	2.16568141	-3.73572055	0.04961050	-0.09200236	-0.01584393
5905	59.04000000	-1.45419848	-0.48656243	-0.42716005	-0.51179409	-0.23115790	0.22674140	-1.90927371	-1.50800161	-0.42173417	-1.09555346	0.74344060	1.59879565	0.22316428	0.05516487	0.87349711	-0.81712869	-0.34779099	0.70790867	-2.10698285	2.86095704	-3.53209885	0.01289875	-0.07131523	0.01456247
5906	59.05000000	-1.36384368	-0.51460920	-0.39858610	-0.56115636	-0.27078879	0.27614310	-1.74161531	-1.74251293	-0.20193555	-0.97368838	0.67818637	1.49213826	0.93688262	0.08638125	0.91550895	-0.34979011	-0.32394850	0.72203192	-1.21652322	3.05826468	-3.11313531	-0.00103836	-0.05127773	0.03966256
5907	59.06000000	-1.26564490	-0.51741377	-0.36778430	-0.66726458	-0.27010918	0.31605743	-1.84049342	-1.99822381	0.10854951	-0.85776476	0.62072042	1.40856569	1.38996562	0.11543087	0.94989221	0.06188463	-0.31605125	0.70914716	-0.39121166	3.09399773	-2.46463328	-0.00300705	-0.07318111	0.08391040
5908	59.07000000	-1.18664033	-0.50095972	-0.33913682	-0.78927982	-0.23936961	0.33845304	-2.10996513	-2.22275007	0.60321564	-0.72856496	0.55681484	1.33159486	1.53790653	0.15639252	0.95320469	0.34327059	-0.35241186	0.70026233	-0.09434389	2.91944217	-1.60526244	-0.03734681	-0.06769657	0.11605270
5909	59.08000000	-1.13693827	-0.47328959	-0.31924254	-0.88851326	-0.17919777	0.34649578	-2.19438930	-2.26590855	1.26146266	-0.58957504	0.47377760	1.25799836	1.46976565	0.24211544	0.94882289	0.51551924	-0.39502304	0.68293065	-0.36479214	2.84605086	-0.54059085	-0.05204834	-0.06776449	0.13580255
5910	59.09000000	-1.11069385	-0.43992178	-0.30887639	-0.94571028	-0.10918706	0.34656657	-1.93673229	-2.10107800	1.93294569	-0.45259275	0.40225226	1.17077596	1.25009424	0.30933685	0.94827400	0.59938582	-0.41548159	0.62501845	-0.95460455	2.90647152	0.60160944	-0.05959460	-0.05847273	0.15010887
5911	59.10000000	-1.09405772	-0.41376002	-0.30608629	-0.95908987	-0.03672660	0.34754417	-1.60332181	-1.71483534	2.51217693	-0.29599897	0.36557874	1.08194969	0.97019300	0.32728540	0.93322213	0.58642175	-0.40013335	0.53946531	-1.26325279	3.14002420	1.57839358	-0.08634414	-0.05481446	0.16541261
5912	59.11000000	-1.08498251	-0.38568350	-0.30834621	-0.93295699	0.03353323	0.36222561	-1.21784400	-1.22422515	2.87372306	-0.10800361	0.34415978	1.01785528	0.67903052	0.32659929	0.90457599	0.50476869	-0.35602352	0.47912832	-1.12760917	3.50442982	2.21864122	-0.09874945	-0.05573780	0.18394582
5913	59.12000000	-1.10199611	-0.33653434	-0.30752563	-0.88043029	0.10635757	0.38373200	-0.41971584	-0.96464318	2.87980368	0.07702916	0.30673463	0.96387281	0.41469544	0.34891495	0.88539403	0.37558011	-0.28730694	0.46883130	-0.88948955	3.88271614	2.53145852	-0.11429557	-0.06110296	0.19824760
5914	59.13000000	-1.12127732	-0.29225939	-0.30213214	-0.81318523	0.17581925	0.41026475	0.70330673	-0.98273813	2.69091284	0.26768195	0.24617007	0.93402460	0.25664284	0.37760466	0.89574050	0.20964113	-0.20534034	0.46864988	-0.81312428	4.11527049	2.60979780	-0.13563491	-0.03972336	0.18939690
5915	59.14000000	-1.12787101	-0.26542211	-0.30098430	-0.74558252	0.22638005	0.41707425	1.78790578	-0.98698644	2.62365821	0.41287715	0.18311433	0.87387102	0.22427844	0.37321916	0.91663271	0.03139386	-0.13953471	0.46337682	-0.94298460	4.20899314	2.54455689	-0.11872969	-0.03026183	0.18259191
5916	59.15000000	-1.12657052	-0.24844666	-0.31227189	-0.68533404	0.26108429	0.39131711	2.67832227	-0.89893174	2.75355893	0.51994556	0.14109488	0.79433019	0.25403254	0.35222220	0.92639929	-0.11924021	-0.10107518	0.47267921	-1.27924432	4.21578070	2.37879538	-0.10494010	-0.04773530	0.18246646
5917	59.16000000	-1.11130502	-0.23952098	-0.32841675	-0.63652330	0.28404778	0.35225417	3.27857814	-0.80858010	3.03326594	0.63153710	0.12787017	0.71542661	0.29640029	0.34782403	0.91631013	-0.21875614	-0.08897256	0.50019272	-1.63202488	4.19477806	2.13493534	-0.11624666	-0.03582184	0.16309951
5918	59.17000000	-1.09169778	-0.23517940	-0.33727274	-0.58208901	0.30179370	0.29613596	3.54252280	-0.72757735	3.41316931	0.75899765	0.11620980	0.63650914	0.33003594	0.37895318	0.90508231	-0.27094574	-0.09301446	0.54519980	-1.80746190	4.23663768	1.82980290	-0.10473464	-0.02229633	0.14816289
5919	59.18000000	-1.06141612	-0.23021442	-0.34546903	-0.52658977	0.31493667	0.23146173	3.57581028	-0.64683049	3.82098645	0.87572879	0.09436198	0.56329173	0.33333158	0.40115937	0.91460113	-0.28540291	-0.11022224	0.59286507	-1.73350202	4.32702023	1.50398180	-0.08873803	-0.00189310	0.13601092
5920	59.19000000	-1.02717875	-0.22704216	-0.35185903	-0.48712527	0.32254224	0.17037273	3.50463946	-0.54920905	4.20611712	0.92817581	0.07174702	0.46477833	0.29614985	0.39219498	0.91780492	-0.28470773	-0.12585982	0.64511193	-1.50145477	4.39368277	1.26992302	-0.08877136	0.00586485	0.13056031
5921	59.20000000	-0.99037013	-0.22035057	-0.35526200	-0.46442151	0.32522548	0.12220460	3.35289890	-0.43719867	4.57823092	0.91916058	0.05633944	0.39691545	0.23871977	0.36775948	0.88849257	-0.29131117	-0.12915798	0.69463820	-1.36974966	4.36391856	1.20883036	-0.08758252	0.02404009	0.12979946
5922	59.21000000	-0.93574635	-0.20805480	-0.35942524	-0.45504955	0.32400760	0.08864188	3.07560321	-0.35014865	4.94809782	0.80621961	0.02379372	0.33833575	0.18007094	0.35879261	0.85431366	-0.30577196	-0.13301438	0.72933750	-1.35402061	4.26218587	1.30648355	-0.09553058	0.03474842	0.13265024
5923	59.22000000	-0.87758883	-0.18420934	-0.36535306	-0.45088517	0.31429563	0.04755265	2.53636414	-0.35968861	5.23557243	0.57469359	-0.06824330	0.26501018	0.12623547	0.35471657	0.84936077	-0.30686774	-0.13676563	0.75149216	-1.22655678	4.14217573	1.50420869	-0.09566443	0.04108636	0.13228034
